<?xml version="1.0" encoding="UTF-8"?>
<!DOCTYPE svg PUBLIC "-//W3C//DTD SVG 1.1//EN" "http://www.w3.org/Graphics/SVG/1.1/DTD/svg11.dtd">
<!-- Creator: CorelDRAW X7 -->
<svg xmlns="http://www.w3.org/2000/svg" xml:space="preserve" width="105.206mm" height="70mm" version="1.1" style="shape-rendering:geometricPrecision; text-rendering:geometricPrecision; image-rendering:optimizeQuality; fill-rule:evenodd; clip-rule:evenodd"
viewBox="0 0 9938 6612"
 xmlns:xlink="http://www.w3.org/1999/xlink">
 <defs>
  <style type="text/css">
   <![CDATA[
    .fil0 {fill:#242222}
   ]]>
  </style>
 </defs>
 <g id="Layer_x0020_1">
  <metadata id="CorelCorpID_0Corel-Layer"/>
  <g id="_371530416">
   <path class="fil0" d="M9888 5373l-285 0 -148 0c-14,-72 -35,-123 -63,-151 -47,-47 -126,-71 -235,-71 -108,0 -182,18 -224,54 -32,27 -48,64 -48,111 0,65 91,118 272,158 206,45 355,84 446,115 24,9 44,17 59,24 185,87 276,219 276,395 0,215 -90,372 -268,471 -23,12 -43,22 -67,33 -115,49 -250,75 -401,75 -226,0 -408,-41 -547,-120 -88,-51 -153,-115 -197,-192 -43,-77 -65,-167 -65,-270l454 0c0,78 29,139 84,181 56,43 150,66 283,66 100,0 175,-21 224,-63 39,-33 57,-69 57,-111 0,-70 -90,-125 -268,-164 -266,-57 -433,-103 -502,-136 -182,-86 -272,-217 -272,-400 0,-146 46,-270 142,-372 120,-127 299,-190 537,-190 196,0 353,29 471,84 10,4 19,9 28,15 85,46 150,108 193,184 43,76 64,167 64,274z"/>
   <path class="fil0" d="M9692 4269c9,12 14,25 14,40 0,21 -8,39 -23,54 -15,15 -34,24 -58,26 11,4 18,9 24,14l42 56 33 55 -54 0 -26 -45c-16,-28 -29,-49 -41,-59 -2,-2 -3,-4 -6,-5l-36 -10 -27 0 0 119 -45 0 0 -281 97 0c6,0 12,2 17,2 24,0 41,3 53,7 15,5 27,13 36,27zm-36 45c0,-9 -1,-17 -6,-23 -4,-7 -10,-12 -19,-14 -6,-2 -15,-4 -28,-5l-17 0 -52 0 0 84 55 0c5,0 11,0 14,0 19,-2 33,-5 40,-12 9,-8 13,-18 13,-30z"/>
   <path class="fil0" d="M9863 4371c0,43 -11,86 -35,128 -22,42 -53,74 -95,96 -42,24 -84,34 -129,34 -1,0 -1,0 -1,0 -45,0 -87,-10 -129,-34 -42,-22 -73,-54 -96,-96 -24,-42 -34,-85 -34,-128 0,-47 10,-90 34,-132 24,-42 56,-73 98,-96 42,-22 83,-33 127,-34 0,0 0,0 1,0 43,0 85,12 127,34 42,23 75,54 97,96 24,42 35,85 35,132zm-43 0c0,-39 -10,-75 -29,-110 -19,-34 -46,-61 -81,-80 -34,-18 -70,-29 -106,-29 -1,0 -1,0 -1,0 -36,0 -72,11 -106,29 -35,19 -62,46 -81,80 -20,35 -30,71 -30,110 0,37 10,73 30,107 18,33 45,60 79,79 34,20 70,29 108,29 0,0 0,0 1,0 38,0 73,-9 108,-29 34,-19 61,-46 79,-79 20,-34 29,-70 29,-107z"/>
   <polygon class="fil0" points="7319,2258 8547,4303 7319,4303 6575,4303 5402,2349 4514,870 5402,336 5962,0 "/>
   <path class="fil0" d="M7802 5817l0 -186c-43,-224 -242,-395 -478,-395 -2,0 -3,0 -5,0 -267,2 -484,220 -484,488 0,268 217,486 484,489 2,0 3,0 5,0 236,0 435,-172 478,-396zm409 -93l0 839 -409 0 0 -93c-137,90 -302,142 -478,142 -2,0 -3,0 -5,0 -487,-3 -883,-401 -883,-888 0,-488 396,-885 883,-888 2,0 3,0 5,0 176,0 341,52 478,142l0 -97 409 0 0 843z"/>
   <path class="fil0" d="M5885 5817l0 -186c-43,-224 -242,-395 -478,-395 -2,0 -3,0 -5,0 -267,2 -484,220 -484,488 0,268 217,486 484,489 2,0 3,0 5,0 236,0 435,-172 478,-396zm409 -93l0 839 -409 0 0 -93c-139,90 -302,142 -478,142 -2,0 -3,0 -5,0 -487,-3 -883,-401 -883,-888 0,-488 396,-885 883,-888 2,0 3,0 5,0 176,0 339,52 478,142l0 -675 409 0 0 1421z"/>
   <polygon class="fil0" points="5402,3499 5884,4303 5402,4303 3913,4303 2819,2482 2771,2403 2819,2375 4220,1531 "/>
   <polygon class="fil0" points="3915,4836 4359,4836 4359,6563 3915,6563 "/>
   <polygon class="fil0" points="3915,4312 4359,4312 4359,4703 3915,4703 "/>
   <path class="fil0" d="M3303 5817l0 -186c-43,-224 -242,-395 -480,-395 -1,0 -3,0 -4,0 -268,2 -485,220 -485,488 0,268 217,486 485,489 1,0 3,0 4,0 238,0 437,-172 480,-396zm408 -93l0 839 -408 0 0 -93c-139,90 -303,142 -480,142 -1,0 -3,0 -4,0 -488,-3 -884,-401 -884,-888 0,-488 396,-885 884,-888 1,0 3,0 4,0 177,0 341,52 480,142l0 -675 408 0 0 1421z"/>
   <polygon class="fil0" points="2819,3630 3222,4303 2819,4303 1250,4303 1029,3934 2478,3064 "/>
   <path class="fil0" d="M1367 5817l0 -186c-44,-224 -243,-395 -480,-395 -2,0 -3,0 -5,0 -266,2 -483,220 -483,488 0,268 217,486 483,489 2,0 3,0 5,0 237,0 436,-172 480,-396zm408 -93l0 839 -408 0 0 -93c-139,90 -304,142 -480,142 -2,0 -3,0 -5,0 -486,-3 -882,-401 -882,-888 0,-488 396,-885 882,-888 2,0 3,0 5,0 176,0 341,52 480,142l0 -97 408 0 0 843z"/>
  </g>
 </g>
</svg>
